HIERARCHY
ROOT Hips
{
	OFFSET 0.00000 0.00000 0.00000
	CHANNELS 6 Xposition Yposition Zposition Zrotation Yrotation Xrotation 
	JOINT LHipJoint
	{
		OFFSET 0 0 0
		CHANNELS 3 Zrotation Yrotation Xrotation
		JOINT LeftUpLeg
		{
			OFFSET 1.39187 -1.60231 0.69152
			CHANNELS 3 Zrotation Yrotation Xrotation
			JOINT LeftLeg
			{
				OFFSET 2.43314 -6.68499 0.00000
				CHANNELS 3 Zrotation Yrotation Xrotation
				JOINT LeftFoot
				{
					OFFSET 2.32059 -6.37578 0.00000
					CHANNELS 3 Zrotation Yrotation Xrotation
					JOINT LeftToeBase
					{
						OFFSET 0.23021 -0.63250 1.71305
						CHANNELS 3 Zrotation Yrotation Xrotation
						End Site
						{
							OFFSET 0.00000 -0.00000 0.91647
						}
					}
				}
			}
		}
	}
	JOINT RHipJoint
	{
		OFFSET 0 0 0
		CHANNELS 3 Zrotation Yrotation Xrotation
		JOINT RightUpLeg
		{
			OFFSET -1.19407 -1.60231 0.69152
			CHANNELS 3 Zrotation Yrotation Xrotation
			JOINT RightLeg
			{
				OFFSET -2.44411 -6.71513 0.00000
				CHANNELS 3 Zrotation Yrotation Xrotation
				JOINT RightFoot
				{
					OFFSET -2.31924 -6.37207 0.00000
					CHANNELS 3 Zrotation Yrotation Xrotation
					JOINT RightToeBase
					{
						OFFSET -0.19473 -0.53502 1.87724
						CHANNELS 3 Zrotation Yrotation Xrotation
						End Site
						{
							OFFSET -0.00000 -0.00000 0.98293
						}
					}
				}
			}
		}
	}
	JOINT LowerBack
	{
		OFFSET 0 0 0
		CHANNELS 3 Zrotation Yrotation Xrotation
		JOINT Spine
		{
			OFFSET -0.01120 1.87307 0.09613
			CHANNELS 3 Zrotation Yrotation Xrotation
			JOINT Spine1
			{
				OFFSET 0.01099 1.87818 0.04834
				CHANNELS 3 Zrotation Yrotation Xrotation
				JOINT Neck
				{
					OFFSET 0 0 0
					CHANNELS 3 Zrotation Yrotation Xrotation
					JOINT Neck1
					{
						OFFSET 0.01702 1.40324 -0.12579
						CHANNELS 3 Zrotation Yrotation Xrotation
						JOINT Head
						{
							OFFSET -0.04239 1.38587 -0.01614
							CHANNELS 3 Zrotation Yrotation Xrotation
							End Site
							{
								OFFSET -0.02510 1.47031 -0.00154
							}
						}
					}
				}
				JOINT LeftShoulder
				{
					OFFSET 0 0 0
					CHANNELS 3 Zrotation Yrotation Xrotation
					JOINT LeftArm
					{
						OFFSET 2.95699 0.62343 0.11653
						CHANNELS 3 Zrotation Yrotation Xrotation
						JOINT LeftForeArm
						{
							OFFSET 4.68382 -0.00000 -0.00000
							CHANNELS 3 Zrotation Yrotation Xrotation
							JOINT LeftHand
							{
								OFFSET 2.98124 -0.00000 -0.00000
								CHANNELS 3 Zrotation Yrotation Xrotation
								JOINT LeftFingerBase
								{
									OFFSET 0 0 0
									CHANNELS 3 Zrotation Yrotation Xrotation
									JOINT LeftHandIndex1
									{
										OFFSET 0.70759 -0.00000 0.00000
										CHANNELS 3 Zrotation Yrotation Xrotation
										End Site
										{
											OFFSET 0.57048 -0.00000 0.00000
										}
									}
								}
								JOINT LThumb
								{
									OFFSET 0 0 0
									CHANNELS 3 Zrotation Yrotation Xrotation
									End Site
									{
										OFFSET 0.57919 -0.00000 0.57919
									}
								}
							}
						}
					}
				}
				JOINT RightShoulder
				{
					OFFSET 0 0 0
					CHANNELS 3 Zrotation Yrotation Xrotation
					JOINT RightArm
					{
						OFFSET -2.99027 0.88714 -0.02793
						CHANNELS 3 Zrotation Yrotation Xrotation
						JOINT RightForeArm
						{
							OFFSET -4.75876 -0.00000 -0.00000
							CHANNELS 3 Zrotation Yrotation Xrotation
							JOINT RightHand
							{
								OFFSET -2.93293 -0.00000 -0.00000
								CHANNELS 3 Zrotation Yrotation Xrotation
								JOINT RightFingerBase
								{
									OFFSET 0 0 0
									CHANNELS 3 Zrotation Yrotation Xrotation
									JOINT RightHandIndex1
									{
										OFFSET -0.83175 -0.00000 0.00000
										CHANNELS 3 Zrotation Yrotation Xrotation
										End Site
										{
											OFFSET -0.67058 -0.00000 0.00000
										}
									}
								}
								JOINT RThumb
								{
									OFFSET 0 0 0
									CHANNELS 3 Zrotation Yrotation Xrotation
									End Site
									{
										OFFSET -0.68082 -0.00000 0.68082
									}
								}
							}
						}
					}
				}
			}
		}
	}
}
MOTION
Frames: 11
Frame Time: .0083333
-4.153 15.4054 -2.6446 0 0 0 0 0 0 -21 0 0 0 0 0 0 0 0 0 0 0 0 0 0 21 0 0 0 0 0 0 0 0 0 0 0 0 0 0 0 0 0 0 0 0 0 0 -16 0 0 21 0 0 11 0 0 0 -8 0 0 0 0 0 0 0 0 0 0 0 0 0 0 0 0 0 0 0 0 8 0 0 0 0 0 0 0 0 0 0 0 0 0 0 0 0 0
-4.1530 15.4054 -2.6446 0.5316 85.5829 8.8414 0.0000 0.0000 0.0000 -7.2451 -14.2035 -29.9761 7.1991 15.4973 49.6232 2.0090 3.6444 -28.2793 0.7274 -5.4494 -15.1948 0.0000 0.0000 0.0000 9.8256 9.2926 -33.0779 -7.1379 -15.4469 49.3940 -0.5086 -11.0022 -21.6090 -0.6270 5.0667 -14.0989 -0.8834 3.1069 -5.0013 0.2875 4.2760 -4.2705 0.9302 2.2107 -1.6815 3.1542 21.5166 10.4484 -3.0092 29.0575 1.4893 -2.0960 14.6400 -0.2181 0.0000 0.0000 0.0000 -15.8057 -61.5776 7.5576 39.0459 -47.4943 -17.7326 -0.0000 -0.0000 5.3238 5.0897 25.3383 2.1829 -7.1250 0.0000 -0.0000 -25.4595 53.5392 -5.6315 0.0000 0.0000 0.0000 9.2636 55.8726 6.6653 -43.1405 49.8243 -20.8080 0.0000 -0.0000 -12.6722 -0.7391 -1.4682 0.0189 7.1250 -0.0000 -0.0000 20.3116 -31.0075 7.3622
-4.1546 15.4052 -2.6457 0.9853 85.5599 9.3076 0.0000 0.0000 0.0000 -7.2886 -14.1860 -29.9853 7.1943 15.4934 49.6055 2.0018 3.6784 -28.2479 0.7444 -5.5114 -15.3730 0.0000 0.0000 0.0000 9.7777 9.2969 -33.1273 -7.1468 -15.4543 49.4274 -0.5118 -10.9882 -21.6255 -0.6462 5.1426 -14.3156 -0.9586 2.9069 -7.1561 0.4690 3.9912 -2.7703 1.3314 2.0300 1.0470 2.7760 21.7418 9.8421 -4.2120 29.2425 0.3106 -2.3867 14.7361 -0.3660 -0.0000 0.0000 0.0000 -12.3043 -61.6931 3.0047 38.9054 -47.4078 -17.6291 -0.0000 -0.0000 5.5428 4.9632 25.2265 2.1196 -7.1250 0.0000 -0.0000 -25.5101 53.4161 -5.5645 -0.0000 0.0000 0.0000 6.0167 56.9774 3.1698 -42.9414 49.7192 -20.6560 0.0000 -0.0000 -12.4241 -0.7243 -1.4026 0.0177 7.1250 -0.0000 -0.0000 20.3091 -30.9454 7.3936
-4.1572 15.4045 -2.6469 1.4534 85.5357 9.7838 0.0000 0.0000 0.0000 -7.3266 -14.1877 -30.0013 7.1953 15.4941 49.6090 1.9970 3.6862 -28.2194 0.7442 -5.5107 -15.3710 0.0000 0.0000 0.0000 9.7250 9.3051 -33.1674 -7.1481 -15.4553 49.4322 -0.5194 -10.9205 -21.6296 -0.6388 5.1133 -14.2320 -0.9736 2.9162 -7.0540 0.4433 4.0052 -2.8303 1.3062 2.0388 0.9292 2.8567 21.7070 9.9703 -4.2521 29.2073 0.3065 -2.4207 14.7211 -0.3715 -0.0000 -0.0000 0.0000 -12.3411 -61.6492 3.1833 38.9147 -47.4136 -17.6360 -0.0000 -0.0000 5.4205 5.0967 25.1448 2.1703 -7.1250 0.0000 -0.0000 -25.3328 53.3664 -5.4898 -0.0000 -0.0000 0.0000 6.3969 57.0282 3.3876 -43.0816 49.7933 -20.7631 0.0000 -0.0000 -12.1471 -0.6404 -1.4876 0.0166 7.1250 -0.0000 -0.0000 20.3902 -31.0219 7.3867
-4.1586 15.4055 -2.6477 1.3289 85.5408 9.6563 0.0000 0.0000 0.0000 -7.3099 -14.2015 -30.0112 7.1993 15.4974 49.6240 1.9968 3.6621 -28.2069 0.7305 -5.4608 -15.2278 0.0000 0.0000 0.0000 9.7289 9.3213 -33.1690 -7.1484 -15.4556 49.4333 -0.5249 -10.9025 -21.6649 -0.6345 5.0965 -14.1841 -0.9935 2.9035 -7.1247 0.4829 3.9882 -2.7631 1.3632 2.0287 1.0337 2.8884 21.6979 10.0587 -4.4222 29.1949 0.1868 -2.4881 14.7192 -0.3942 -0.0000 -0.0000 0.0000 -12.1372 -61.5938 3.0202 38.9013 -47.4053 -17.6261 -0.0000 -0.0000 5.4227 5.2142 25.0824 2.2154 -7.1250 0.0000 -0.0000 -25.1828 53.3311 -5.4314 -0.0000 -0.0000 0.0000 6.4356 57.1832 3.2166 -43.0542 49.7788 -20.7421 0.0000 -0.0000 -12.0594 -0.5699 -1.5844 0.0158 7.1250 -0.0000 -0.0000 20.4640 -31.1100 7.3703
-4.1595 15.4055 -2.6484 0.0959 85.5309 8.3878 0.0000 0.0000 0.0000 -7.2147 -14.1643 -29.9970 7.2071 15.5038 49.6533 2.0011 3.6362 -28.2237 0.7228 -5.4325 -15.1463 0.0000 0.0000 0.0000 9.8400 9.3564 -33.1146 -7.1479 -15.4551 49.4313 -0.5202 -10.9465 -21.6639 -0.6525 5.1671 -14.3857 -0.8440 3.1149 -4.9185 0.3230 4.2838 -4.2460 0.9406 2.2136 -1.7022 3.2110 21.4801 10.5202 -3.1420 29.0183 1.4906 -2.1429 14.6244 -0.2021 0.0000 0.0000 0.0000 -15.6700 -61.5265 7.4937 39.0862 -47.5191 -17.7623 -0.0000 -0.0000 5.4400 5.2120 25.0274 2.2099 -7.1250 0.0000 -0.0000 -25.1511 53.2811 -5.3921 0.0000 0.0000 0.0000 9.8169 56.1396 6.8054 -43.2002 49.8557 -20.8537 0.0000 -0.0000 -12.2287 -0.6498 -1.5956 0.0181 7.1250 -0.0000 -0.0000 20.4059 -31.1236 7.3397
-4.1627 15.4030 -2.6488 -0.5592 85.5439 7.7201 0.0000 0.0000 0.0000 -7.1546 -14.1639 -30.0120 7.2166 15.5116 49.6888 2.0156 3.5583 -28.2834 0.7125 -5.3946 -15.0375 0.0000 0.0000 0.0000 9.8998 9.3654 -33.1038 -7.1489 -15.4560 49.4353 -0.5176 -10.9495 -21.6419 -0.6639 5.2110 -14.5114 -0.8598 3.0783 -5.2498 0.4116 4.2308 -3.9856 1.0691 2.1824 -1.2560 3.1130 21.5133 10.4204 -3.3285 29.0391 1.3022 -2.1846 14.6343 -0.2317 0.0000 0.0000 0.0000 -15.1590 -61.5646 6.7833 39.0566 -47.5009 -17.7405 -0.0000 -0.0000 5.5047 5.2955 25.0012 2.2433 -7.1250 0.0000 -0.0000 -25.0559 53.2723 -5.3640 0.0000 0.0000 0.0000 9.2229 56.3327 6.2531 -43.1573 49.8331 -20.8209 0.0000 -0.0000 -12.3132 -0.7694 -1.5691 0.0211 7.1250 -0.0000 -0.0000 20.3098 -31.1033 7.3114
-4.1653 15.4026 -2.6491 0.2021 85.6090 8.4741 0.0000 0.0000 0.0000 -7.2107 -14.2458 -30.0134 7.2232 15.5170 49.7134 2.0234 3.6198 -28.3629 0.7149 -5.4036 -15.0633 0.0000 0.0000 0.0000 9.8362 9.3027 -33.1182 -7.1513 -15.4580 49.4442 -0.5170 -10.9266 -21.6129 -0.6448 5.1369 -14.2993 -0.8552 3.1105 -4.8300 0.3127 4.2774 -4.2552 0.9302 2.2106 -1.7608 3.2015 21.4547 10.6092 -3.1028 28.9790 1.3777 -2.1537 14.6028 -0.2618 -0.0000 -0.0000 0.0000 -15.7243 -61.5872 7.6667 39.1442 -47.5546 -17.8051 -0.0000 -0.0000 5.3954 5.4266 25.1355 2.3107 -7.1250 0.0000 -0.0000 -25.0135 53.4167 -5.4453 -0.0000 -0.0000 0.0000 9.7608 56.0181 6.9912 -43.1413 49.8247 -20.8087 0.0000 -0.0000 -12.5264 -0.8894 -1.4990 0.0233 7.1250 -0.0000 -0.0000 20.2043 -31.0420 7.3007
-4.1665 15.4021 -2.6509 0.2675 85.6340 8.5305 0.0000 0.0000 0.0000 -7.2133 -14.2687 -30.0199 7.2277 15.5207 49.7305 2.0190 3.7369 -28.3877 0.7319 -5.4661 -15.2428 0.0000 0.0000 0.0000 9.8240 9.2678 -33.1185 -7.1544 -15.4606 49.4560 -0.5168 -10.9115 -21.5955 -0.6256 5.0614 -14.0837 -0.9059 3.0583 -5.2120 0.3978 4.2046 -3.9619 1.0781 2.1694 -1.2540 3.0331 21.5130 10.5503 -3.3312 29.0205 1.0690 -2.2160 14.6226 -0.3394 0.0000 0.0000 0.0000 -15.1011 -61.5954 6.7834 39.1439 -47.5544 -17.8049 -0.0000 -0.0000 5.4817 5.3732 25.1985 2.2932 -7.1250 0.0000 -0.0000 -25.1032 53.4640 -5.4968 0.0000 0.0000 0.0000 8.8743 56.1804 6.4272 -43.0524 49.7779 -20.7407 0.0000 -0.0000 -12.7996 -1.1244 -1.4325 0.0281 7.1250 -0.0000 -0.0000 20.0126 -30.9884 7.2507
-4.1675 15.4003 -2.6526 0.2011 85.5958 8.4604 0.0000 0.0000 0.0000 -7.2183 -14.2177 -30.0255 7.2289 15.5216 49.7348 2.0120 3.6601 -28.3062 0.7261 -5.4445 -15.1809 0.0000 0.0000 0.0000 9.8147 9.3084 -33.1090 -7.1560 -15.4618 49.4618 -0.5160 -10.9470 -21.6242 -0.6415 5.1241 -14.2629 -0.8948 3.0440 -5.2206 0.4190 4.1844 -3.9365 1.0944 2.1587 -1.2234 2.9798 21.5193 10.5827 -3.3877 29.0206 1.0033 -2.2357 14.6234 -0.3644 -0.0000 0.0000 0.0000 -15.0329 -61.5198 6.6515 39.1877 -47.5812 -17.8372 -0.0000 -0.0000 5.4846 5.2521 25.1302 2.2356 -7.1250 0.0000 -0.0000 -25.1762 53.3809 -5.4616 -0.0000 0.0000 0.0000 8.9386 56.3071 6.4324 -43.0926 49.7991 -20.7714 0.0000 -0.0000 -12.6135 -1.3226 -1.3512 0.0312 7.1250 -0.0000 -0.0000 19.8459 -30.9192 7.2184
-4.1689 15.3985 -2.6524 0.4428 85.6066 8.6765 0.0000 0.0000 0.0000 -7.2411 -14.2292 -29.9989 7.2320 15.5242 49.7463 2.0137 3.5337 -28.2593 0.7073 -5.3751 -14.9816 0.0000 0.0000 0.0000 9.7973 9.3279 -33.0803 -7.1597 -15.4649 49.4756 -0.5018 -11.0798 -21.6230 -0.6597 5.1950 -14.4656 -0.8901 2.8629 -6.9116 0.5216 3.9234 -2.7226 1.3295 1.9954 0.9638 2.7420 21.6893 10.2310 -4.4258 29.1558 -0.0680 -2.5231 14.6990 -0.5263 0.0000 0.0000 0.0000 -12.0262 -61.4745 3.0296 39.0781 -47.5141 -17.7563 -0.0000 -0.0000 5.5299 5.3066 24.9986 2.2478 -7.1250 0.0000 -0.0000 -25.0436 53.2719 -5.3608 0.0000 0.0000 0.0000 6.4824 57.2874 3.5828 -42.9087 49.7018 -20.6311 0.0000 -0.0000 -12.4137 -1.4705 -1.2039 0.0309 7.1250 -0.0000 -0.0000 19.7040 -30.7858 7.2281
